<?xml version="1.0" encoding="UTF-8" standalone="no"?>
<!-- Created with Inkscape (http://www.inkscape.org/) -->

<svg
   version="1.1"
   id="svg2"
   width="1060.3373"
   height="1122.52"
   viewBox="0 0 1060.3373 1122.52"
   sodipodi:docname="IC-GuardiandelFaro.ai"
   xmlns:inkscape="http://www.inkscape.org/namespaces/inkscape"
   xmlns:sodipodi="http://sodipodi.sourceforge.net/DTD/sodipodi-0.dtd"
   xmlns="http://www.w3.org/2000/svg"
   xmlns:svg="http://www.w3.org/2000/svg">
  <defs
     id="defs6">
    <clipPath
       clipPathUnits="userSpaceOnUse"
       id="clipPath16">
      <path
         d="M 0,841.89 H 795.253 V 0 H 0 Z"
         id="path14" />
    </clipPath>
  </defs>
  <sodipodi:namedview
     id="namedview4"
     pagecolor="#ffffff"
     bordercolor="#000000"
     borderopacity="0.25"
     inkscape:showpageshadow="2"
     inkscape:pageopacity="0.0"
     inkscape:pagecheckerboard="0"
     inkscape:deskcolor="#d1d1d1" />
  <g
     id="g8"
     inkscape:groupmode="layer"
     inkscape:label="IC-GuardiandelFaro"
     transform="matrix(1.3333333,0,0,-1.3333333,0,1122.52)">
    <g
       id="g10">
      <g
         id="g12"
         clip-path="url(#clipPath16)">
        <g
           id="g18"
           transform="translate(772.089,420.9449)">
          <path
             d="m 0,0 c 0,-206.81 -167.653,-374.463 -374.463,-374.463 -206.81,0 -374.462,167.653 -374.462,374.463 0,206.81 167.652,374.463 374.462,374.463 C -167.653,374.463 0,206.81 0,0 Z"
             style="fill:none;stroke:#1c1c1b;stroke-width:6.819;stroke-linecap:butt;stroke-linejoin:miter;stroke-miterlimit:10;stroke-dasharray:none;stroke-opacity:1"
             id="path20" />
        </g>
        <g
           id="g22"
           transform="translate(279.9675,685.3445)">
          <path
             d="m 0,0 c 4.421,3.086 5.713,4.267 6.879,5.682 1.498,1.31 0.282,5.279 -1.172,7.64 -2.053,3.339 -5.046,4.354 -7.806,2.657 l -0.665,-0.43 C -3.349,15.059 -4.091,14.422 -4.953,13.677 -8.906,10.27 -15.52,4.57 -21.076,1.148 c -5.255,-3.233 -7.19,-2.924 -7.795,-2.626 -0.888,0.408 -1.848,0.387 -2.577,-0.057 -0.988,-0.613 -1.471,-1.905 -1.144,-2.93 0.247,-1.057 0.653,-2.076 1.141,-2.866 2.18,-3.54 6.281,-5.439 10.504,-4.799 1.814,0.376 4.444,1.512 7.228,3.107 1.218,-6.457 1.633,-24.121 -8.493,-32.143 l -0.942,-0.577 c -3.555,-2.19 -8.043,-1.379 -11.428,2.085 -1.273,1.286 -2.495,2.906 -3.845,5.096 -12.701,20.633 -16.071,63.079 -1.988,76.614 0.981,0.953 1.914,1.701 2.773,2.23 1.444,0.889 2.7,1.208 3.741,0.967 0.895,-0.216 1.689,-0.874 2.357,-1.965 1.587,-2.572 2.437,-7.334 2.171,-12.31 0.039,-0.432 0.087,-0.97 0.388,-1.451 0.317,-0.526 0.802,-0.817 1.293,-1.099 3.642,-1.581 6.762,-1.596 9.277,-0.049 2.292,1.41 3.909,4.255 4.325,7.605 0.58,4.489 -0.269,8.738 -2.456,12.286 -3.106,5.045 -8.532,8.079 -14.55,8.122 -4.974,-0.121 -10.139,-1.806 -15.486,-5.096 -25.218,-15.528 -26.863,-63.115 -10.473,-89.736 2.107,-3.422 4.575,-6.499 7.341,-9.146 4.054,-3.867 10.463,-6.415 17.234,-6.415 4.498,0 9.157,1.124 13.389,3.732 l 1.651,1.199 c 3.535,2.512 7.941,8.746 10.483,16.519 1.293,-4.023 2.851,-7.776 4.137,-9.867 0.609,-0.986 1.195,-1.532 1.794,-1.998 2.85,-1.478 8.093,-0.661 10.872,1.048 1.546,0.947 2.181,2.296 1.665,3.696 C 7.16,-30.223 1.729,-9.161 0,0"
             style="fill:#1c1c1b;fill-opacity:1;fill-rule:nonzero;stroke:none"
             id="path24" />
        </g>
        <g
           id="g26"
           transform="translate(521.6672,729.999)">
          <path
             d="m 0,0 c 0.774,-0.291 1.486,-0.436 2.109,-0.436 0.846,0 1.533,0.262 2.001,0.773 0.824,0.805 2.072,2.13 3.32,3.458 1.474,1.568 2.997,3.188 3.693,3.807 0.709,0.405 0.977,1.114 1.112,1.472 C 13.36,12.06 9.392,16.597 5.471,18.079 2.51,19.184 0.925,18.232 0.2,17.331 -1.469,15.684 -5.537,10.45 -6.5,7.893 -7.002,6.565 -6.367,4.892 -4.714,3.179 -3.404,1.821 -1.598,0.601 0,0"
             style="fill:#1c1c1b;fill-opacity:1;fill-rule:nonzero;stroke:none"
             id="path28" />
        </g>
        <g
           id="g30"
           transform="translate(369.4162,721.532)">
          <path
             d="m 0,0 c -1.632,-6.123 -7.914,-20.894 -11.236,-21.411 -0.225,-0.033 -0.392,0.015 -0.551,0.138 -0.227,0.178 -0.778,0.803 -1.022,2.792 -0.522,4.317 0.715,12.066 3.012,18.842 2.466,7.268 5.618,11.979 8.035,12.288 l 0.844,-0.033 C -0.533,12.559 0.634,12.391 0.981,9.531 1.408,6.015 0.341,1.358 0,0 M 100.002,4.426 C 99.281,1.163 97.041,-2.842 96.068,-4.27 L 96.06,-4.282 c -3.164,-4.774 -14.563,-16.843 -18.128,-16.2 -0.311,0.069 -0.431,0.201 -0.509,0.321 -0.147,0.231 -0.442,0.983 0,2.963 1.878,8.497 14.066,25.62 20.665,25.62 0.254,0 0.501,-0.027 0.737,-0.078 0.689,-0.153 1.066,-0.478 1.26,-1.082 0.212,-0.661 0.183,-1.64 -0.083,-2.836 m 49.62,-45.457 c 0.002,0.433 0.152,1.217 0.846,2.482 4.657,8.467 22.332,21.435 27.143,18.827 l 0.666,-0.52 c 0.278,-0.27 1.127,-1.091 -0.263,-3.618 -1.704,-3.1 -5.306,-6.27 -6.358,-7.157 -4.879,-4.014 -18.547,-12.345 -21.636,-10.819 -0.242,0.135 -0.401,0.33 -0.398,0.805 m 94.225,-13.857 c -0.387,2.016 -1.57,3.906 -3.337,5.318 -1.681,1.346 -3.936,2.202 -6.38,2.416 -5.91,0.357 -13.548,-1.202 -17.607,-2.179 -1.782,-0.471 -3.493,-0.943 -5.128,-1.409 5.888,3.81 9.528,6.1 10.939,6.887 l 0.77,0.679 c 0.978,1.223 0.879,3.218 -0.281,5.618 -0.955,1.974 -2.472,3.912 -4.057,5.177 -2.035,1.629 -3.831,2.001 -5.341,1.103 -5.505,-3.257 -16.754,-10.741 -26.032,-17.622 -3.92,-2.8 -7.528,-5.601 -10.25,-7.959 -6.827,-3.819 -9.504,-4.111 -10.506,-3.918 0.098,0.33 0.356,0.958 1.011,2.145 5.47,9.332 26.737,27.676 31.822,31.825 l 0.61,0.703 c 1.702,3.095 -2.263,7.953 -5.632,9.804 -2.155,1.19 -3.963,1.331 -5.721,0.328 l -0.792,-0.665 c -0.817,2.903 -2.97,5.37 -6.401,7.257 -14.189,7.791 -33.718,-5.754 -41.878,-18.163 -13.658,-12.421 -17.409,-12.472 -18.138,-12.289 -0.009,0.033 -0.088,0.366 0.364,1.562 3.502,9.288 26.736,36.608 27.044,36.975 l 0.496,0.781 c 0.323,0.854 0.236,1.875 -0.251,2.951 -1.063,2.355 -4.011,4.939 -6.855,6.012 -2.169,0.826 -4.242,0.598 -5.606,-0.67 -1.307,-1.415 -12.988,-14.167 -20.746,-26.242 -0.557,-0.911 -1.101,-1.809 -1.5,-2.533 -5.08,-5.919 -9.312,-10.069 -12.22,-11.983 -0.597,-0.378 -1.411,-0.76 -2.061,-0.961 l 0.812,3.017 c 4.195,12.487 22.652,40.829 30.533,52.932 1.838,2.821 3.155,4.843 3.675,5.715 l 0.239,0.802 c 0.719,3.266 -5.218,6.85 -9.459,7.791 -2.66,0.589 -4.562,0.192 -5.722,-1.235 -1.11,-1.584 -6.744,-9.681 -13.177,-20.11 -1.603,2.181 -4.262,3.723 -7.89,4.525 C 85.528,22.517 71.17,8.602 65.242,-6.478 c -4.268,-8.034 -7.219,-13.01 -9.592,-16.174 -1.017,-1.46 -3.745,-4.104 -5.012,-4.104 -0.137,-0.003 -0.408,-0.081 -0.587,0.898 l -0.184,2.557 c 0.361,7.497 5.765,20.672 8.669,27.748 l 0.844,2.097 c 1.701,4.231 2.824,7.028 2.937,9.615 l -0.107,1.12 c -0.477,4.552 -4.54,8.293 -9.246,8.522 -1.738,0.09 -3.538,-0.154 -5.437,-0.403 -1.318,-0.174 -2.667,-0.352 -4.073,-0.433 0.658,1.587 1.496,3.747 1.986,5.195 l 0.179,0.466 0.075,0.361 c 0.098,2.1 -2.41,3.16 -4.938,3.284 -2.488,0.117 -4.321,-0.725 -4.973,-2.239 -0.918,-2.088 -1.871,-4.546 -1.986,-6.941 -0.09,-1.883 0.46,-3.527 1.596,-4.807 -2.446,-5.24 -3.67,-8.548 -5.88,-14.882 C 29.298,5.123 29.143,4.807 29.053,4.465 25.057,-7.983 17.28,-25.545 13.3,-27.105 c -0.116,0.328 -0.272,0.992 -0.437,2.347 -1.005,10.757 5.555,38.077 7.263,44.423 l 0.08,0.923 c -0.194,1.61 -1.619,2.986 -4.013,3.879 C 14.221,25.206 11.87,25.5 9.909,25.263 7.472,24.965 5.916,24.028 5.076,22.189 L 4.819,21.185 c -2.352,1.878 -5.53,2.633 -9.431,2.155 -16.686,-2.028 -24.98,-26.447 -23.194,-41.942 -0.631,-3.35 -1.286,-6.264 -1.949,-8.665 -1.908,-6.829 -3.432,-8.668 -4.11,-9.137 -0.171,0.262 -0.455,0.86 -0.889,2.224 -2.985,10.39 -1.617,38.447 -1.118,45 l -0.093,0.919 c -0.289,0.913 -1.005,1.686 -2.07,2.238 -2.269,1.175 -6.08,1.341 -9.062,0.391 -2.401,-0.76 -3.891,-2.268 -3.98,-3.96 -0.436,-3.672 -0.856,-10.787 -0.808,-18.346 -0.551,-11.883 -1.591,-20.57 -3.182,-26.573 -1.9,-7.56 -3.862,-9.57 -4.641,-10.089 -0.175,0.3 -0.45,0.925 -0.862,2.214 -2.993,10.411 -1.618,38.45 -1.115,44.994 l -0.093,0.928 c -0.475,1.488 -2.129,2.551 -4.66,2.999 -2.139,0.373 -4.561,0.237 -6.473,-0.373 -2.276,-0.718 -3.687,-2.106 -3.975,-3.942 -0.701,-5.309 -1.449,-21.969 -0.325,-33.567 0.299,-3.356 0.912,-8.161 2.129,-11.979 0.961,-3.041 2.072,-5.039 3.443,-6.247 3.107,-3.074 7.615,-2.187 11.614,-0.922 l 1.994,0.64 c 3.356,1.225 6.057,5.834 8.01,13.634 0.188,0.61 0.362,1.226 0.525,1.845 0.073,-0.252 0.148,-0.502 0.226,-0.745 0.969,-3.047 2.08,-5.045 3.445,-6.243 3.108,-3.08 7.615,-2.194 11.612,-0.926 l 2.01,0.64 c 2.883,1.091 5.328,5.066 7.484,12.172 0.102,0.357 0.203,0.721 0.302,1.087 2.429,-3.443 5.936,-5.02 10.297,-4.579 l 0.318,0.036 c 4.585,0.559 8.66,4.144 12.146,10.673 0.018,-0.192 0.04,-0.382 0.064,-0.571 0.387,-3.221 1.134,-5.507 2.242,-6.932 2.482,-3.605 7.081,-3.575 11.239,-3.064 l 1.923,0.234 c 8.478,1.397 17.092,25.251 20.433,35.56 l 0.164,0.498 -0.033,0.042 c 1.158,2.705 2.201,5.376 3.185,7.9 0.856,2.196 1.669,4.281 2.478,6.177 0.63,-0.126 1.256,-0.159 1.8,-0.186 1.707,-0.078 3.477,0.138 5.031,0.33 0.295,0.036 0.582,0.069 0.863,0.102 -0.44,-1.09 -0.942,-2.307 -1.482,-3.62 -4.002,-9.717 -10.047,-24.404 -10.522,-34.307 -0.127,-2.608 0.245,-5.051 1.059,-6.892 2.081,-4.504 8.522,-4.817 11.984,-4.985 l 1.572,-0.072 c 3.599,-0.114 6.155,1.445 9.76,6.18 0.882,1.154 1.851,2.578 2.933,4.312 0.928,-4.669 3.882,-7.788 8.648,-8.945 4.799,-1.06 10.275,1.238 16.334,6.83 -0.143,-0.541 -0.272,-1.073 -0.387,-1.59 -0.655,-2.953 -0.769,-5.24 -0.351,-7.208 0.973,-4.218 5.007,-5.648 8.826,-6.496 l 2.15,-0.474 c 1.84,-0.397 4.106,0.24 6.747,1.916 1.313,0.839 2.719,1.917 4.256,3.263 -0.045,-0.757 -0.014,-1.445 0.096,-2.046 0.53,-4.338 4.615,-6.439 8.537,-7.92 l 1.965,-0.742 c 3.274,-1.07 8.356,1.082 15.462,6.589 -0.508,-4.846 1.426,-8.746 5.635,-11.177 l 0.272,-0.15 c 4.046,-2.224 9.447,-1.686 16.087,1.574 -0.095,-0.165 -0.188,-0.33 -0.28,-0.496 -1.589,-2.893 -2.297,-5.119 -2.225,-6.934 -0.087,-4.375 3.659,-7.031 7.335,-9.05 l 1.699,-0.935 c 1.748,-0.865 4.137,-0.826 7.277,0.118 0.541,-3.089 3.769,-6.001 5.336,-7.253 l 0.888,-0.686 c 1.58,-0.889 2.86,-0.751 3.771,0.388 2.184,2.5 6.889,6.349 13.017,10.711 1.217,0.496 12.222,4.907 23.737,7.647 3.042,0.715 8.76,1.851 10.514,1.944 0.054,0.006 0.107,0.012 0.158,0.015 -0.954,-0.724 -3.138,-2.211 -5.425,-3.771 -7.375,-5.026 -19.718,-13.439 -24.734,-19.001 l -0.688,-0.859 c -2.669,-3.338 -3.565,-6.277 -2.738,-8.987 0.736,-2.413 2.674,-4.335 5.357,-6.481 l 2.328,-1.86 c 0.35,-0.285 0.791,-0.435 1.262,-0.435 0.081,0 0.164,0.006 0.247,0.015 0.73,0.081 1.464,0.508 1.963,1.135 0.591,0.74 0.947,1.887 0.5,2.846 0.074,0.204 0.319,0.7 1.124,1.703 3.484,4.357 12.451,10.715 20.364,16.321 4.875,3.456 9.479,6.722 12.772,9.483 l 1.368,1.451 c 1.454,1.815 2.023,4.023 1.606,6.214"
             style="fill:#1c1c1b;fill-opacity:1;fill-rule:nonzero;stroke:none"
             id="path32" />
        </g>
        <g
           id="g34"
           transform="translate(244.2787,157.0081)">
          <path
             d="M 0,0 C -1.381,-3.053 -4.394,-6.502 -5.638,-7.695 L -5.65,-7.707 c -4.074,-4.023 -17.693,-13.551 -21.068,-12.129 -0.731,0.33 -0.672,1.451 0.175,3.326 3.423,7.571 17.67,20.906 24.569,20.906 0.602,0 1.151,-0.102 1.628,-0.319 C 0.152,3.852 1.472,3.254 0,0 m 43.266,-20.735 c 3.881,2.692 9.243,5.55 11.571,4.702 0.391,-0.138 0.41,-0.15 0.536,-0.318 0.088,-0.12 0.197,-0.267 -10e-4,-0.817 H 55.37 c -1.523,-4.243 -14.099,-13.804 -19.731,-11.778 -0.269,0.099 -0.503,0.21 -0.701,0.336 2.28,2.743 5.216,5.52 8.328,7.875 m 52.219,19.993 c -2.399,0.718 -4.441,0.399 -5.827,-0.968 -0.264,-0.313 -23.042,-28.137 -33.076,-48.565 -7.769,-3.609 -14.192,-3.199 -18.634,-2.892 -1.151,0.079 -2.175,0.163 -2.889,0.13 -1.116,0.111 -2.292,0.36 -3.045,0.622 l -1.46,0.673 c -4.722,2.914 -2.674,10.357 -1.575,13.418 0.456,1.274 1.042,2.488 1.683,3.69 0.826,-0.844 1.866,-1.502 3.075,-1.935 8.769,-3.17 24.743,6.355 29.004,17.249 l 0.108,0.298 c 2.046,5.703 -1.02,11.093 -7.844,13.749 l -0.587,0.207 c -11.18,4.014 -23.344,-4.218 -31.008,-13.259 -3.507,-4.132 -6.183,-8.572 -7.841,-12.887 -3.639,-1.195 -7.616,-2.179 -11.179,-3.056 -3.833,-0.943 -7.452,-1.832 -9.899,-2.794 -0.577,-0.222 -1.486,-0.451 -2.202,-0.52 l 1.41,2.789 c 6.671,11.348 30.553,35.277 40.75,45.495 2.389,2.392 4.103,4.111 4.793,4.856 l 0.398,0.739 c 0.805,1.779 -0.612,3.9 -1.943,5.366 -1.561,1.722 -3.695,3.293 -5.711,4.204 -2.484,1.117 -4.429,1.126 -5.852,-0.036 C 22.356,22.306 15.767,15.876 9.099,8.867 c -1.117,2.46 -3.401,4.516 -6.787,6.051 -6.828,3.086 -15.379,1.661 -24.083,-4.017 -7.494,-4.889 -14.223,-12.514 -17.562,-19.9 -4.075,-9.002 -2.518,-16.029 4.437,-19.349 4.471,-2.023 10.309,-0.911 17.39,3.32 -0.251,-0.499 -0.487,-0.992 -0.706,-1.479 -1.249,-2.755 -1.829,-4.966 -1.824,-6.976 0.084,-4.33 3.736,-6.562 7.298,-8.176 l 2.01,-0.907 c 0.712,-0.322 1.531,-0.481 2.453,-0.481 1.312,0 2.831,0.324 4.543,0.973 2.682,1.013 6.319,1.911 10.169,2.861 2.459,0.608 5.011,1.25 7.521,1.958 -1.181,-8.781 3.287,-15.593 13.002,-19.472 l 1.671,-0.598 c 1.98,-0.712 3.873,-1.1 5.833,-1.19 0.842,-0.006 1.803,-0.075 2.876,-0.147 1.553,-0.108 3.317,-0.231 5.271,-0.231 3.172,0 6.85,0.336 10.933,1.56 -0.237,-0.669 -0.452,-1.322 -0.64,-1.957 -0.893,-3.005 -1.181,-5.321 -0.909,-7.289 l 0.001,-0.003 c 0.709,-5.018 6.053,-6.607 9.959,-7.77 0.174,-0.051 0.362,-0.081 0.554,-0.081 0.833,0 1.767,0.535 2.236,2.103 0.275,0.934 0.248,1.968 -0.205,2.596 0.052,0.21 0.14,0.514 0.22,0.784 l 0.979,2.764 c 3.743,8.969 15.881,27.144 36.081,54.017 l 1.54,2.055 0.314,0.806 c 0.844,2.851 -3.977,7.316 -8.189,8.566"
             style="fill:#1c1c1b;fill-opacity:1;fill-rule:nonzero;stroke:none"
             id="path36" />
        </g>
        <g
           id="g38"
           transform="translate(458.7973,158.7267)">
          <path
             d="M 0,0 C 3.119,0.243 4.976,0.177 6.365,-0.21 8.124,-0.79 8.927,-1.683 9.044,-3.197 9.101,-3.957 8.9,-4.964 8.538,-6.427 L 8.414,-7.352 c 0.05,-0.643 0.362,-1.241 0.881,-1.686 0.566,-0.481 1.319,-0.742 2.029,-0.67 0.803,0.057 1.537,0.409 2.053,1.013 2.62,3.401 3.859,7.094 3.584,10.687 -0.297,3.834 -2.243,7.199 -5.477,9.474 -3.399,2.388 -7.96,3.44 -13.231,3.031 C -6.38,14.14 -14.491,12.313 -23.882,10.198 -35.65,7.545 -48.989,4.54 -58.419,3.813 -66.031,3.23 -68.706,4.321 -69.572,5.282 c -0.55,0.703 -1.365,1.04 -2.301,0.968 -1.258,-0.097 -2.488,-1.154 -2.371,-2.693 0.023,-1.141 -0.018,-2.256 -0.055,-3.332 -0.052,-1.466 -0.101,-2.854 0.001,-4.167 0.273,-3.533 1.4,-7.707 7.738,-8.59 2.137,-0.286 4.474,-0.307 7.356,-0.087 6.783,0.522 14.444,2.632 21.203,4.495 0.932,0.255 1.848,0.507 2.746,0.751 -1.933,-5.673 -5.603,-20.405 -7.792,-29.418 -4.088,-0.782 -7.527,-1.28 -10.229,-1.491 -5.191,-0.396 -7.076,0.274 -7.787,0.962 -0.387,0.33 -1.173,0.886 -2.143,0.802 -1.162,-0.09 -2.183,-1.022 -2.341,-2.013 -0.319,-1.016 -0.246,-1.965 -0.182,-2.815 0.317,-4.099 3.57,-7.65 8.054,-8.828 2.26,-0.676 5.471,-0.604 9.603,-0.288 l 1.914,0.147 c -3.577,-16.841 -5.2,-27.841 -4.812,-32.814 l 0.312,-1.691 c 0.885,-2.863 3.639,-4.306 8.198,-4.306 0.613,0 1.261,0.027 1.94,0.078 l 1.574,0.118 c 0.726,0.057 1.384,0.387 1.854,0.937 0.473,0.553 0.712,1.28 0.657,1.992 -0.429,5.565 3.474,23.854 7.024,38.153 7.205,1.183 14.068,2.752 16.625,3.608 1.26,0.355 2.078,1.469 1.93,2.981 l -0.428,1.661 c -0.847,3.936 -1.92,8.78 -7.639,8.38 l -6.694,-1.508 c 2.759,10.609 5.201,19.485 6.171,22.943 l 0.123,0.919 c -0.141,1.842 -2.146,3.348 -4.585,4.27 0.265,0.063 0.531,0.126 0.798,0.186 7.749,1.83 16.531,3.9 23.11,4.408"
             style="fill:#1c1c1b;fill-opacity:1;fill-rule:nonzero;stroke:none"
             id="path40" />
        </g>
        <g
           id="g42"
           transform="translate(487.302,123.7501)">
          <path
             d="m 0,0 c -0.559,-6.31 -4.224,-21.934 -7.412,-23.012 -0.284,-0.087 -0.532,-0.066 -0.875,0.276 -0.306,0.307 -0.76,0.962 -1.176,2.344 -1.254,4.164 -1.357,12.009 -0.249,19.079 1.188,7.584 3.489,12.764 5.82,13.482 l 0.838,0.111 c 0.025,0 0.055,0.003 0.09,0.003 0.457,0 1.532,-0.15 2.306,-2.722 C 0.361,6.177 0.104,1.4 0,0 m 100.79,17.231 -0.26,-0.189 c -1.384,-0.709 -3.402,0.613 -5.389,3.513 -6.523,9.524 -11.065,30.935 -6.391,35.448 l 0.646,0.445 c 0.362,0.249 0.742,0.372 1.142,0.372 1.187,0 2.533,-1.094 4.02,-3.266 2.936,-4.284 5.195,-11.126 5.824,-13.142 2.168,-7.593 4.193,-20.588 0.408,-23.181 m 8.997,25.843 c -1.034,4.131 -3.401,10.393 -6.948,15.576 -5.324,7.773 -11.738,10.645 -18.575,8.299 -1.253,-0.466 -2.59,-1.166 -3.766,-1.965 C 74.621,60.96 71.651,53.209 72.138,43.158 72.368,38.4 73.385,33.489 74.994,28.876 74.159,16.103 70.04,2.541 69.967,2.283 c -0.58,-2.932 -1.705,-5.81 -2.413,-6.165 -0.105,-0.051 -0.347,-0.171 -0.912,0.517 l -1.412,2.136 c -3.37,6.724 -5.114,20.876 -6.05,28.481 l -0.287,2.199 C 58.3,33.97 57.906,36.957 56.735,39.27 l -0.64,0.923 c -2.648,3.737 -8.027,5.005 -12.235,2.89 -1.564,-0.781 -3.012,-1.866 -4.545,-3.014 -1.063,-0.799 -2.152,-1.613 -3.338,-2.373 -0.206,1.712 -0.535,4.014 -0.817,5.498 l -0.071,0.496 -0.109,0.355 c -0.277,0.552 -1.004,1.496 -2.87,1.337 C 31.177,45.319 30.096,45 29.065,44.486 26.864,43.387 25.655,41.743 25.829,40.1 c 0.221,-2.266 0.592,-4.874 1.671,-7.028 0.842,-1.68 2.119,-2.843 3.727,-3.398 0.096,-3.477 -0.82,-6.346 -1.956,-9.916 -0.88,-2.761 -1.878,-5.889 -2.575,-10.068 0,-0.201 0.031,-0.338 0.058,-0.485 -0.005,-0.038 -0.02,-0.068 -0.024,-0.107 -3.154,-22.55 -6.752,-32.035 -9.001,-33.522 -0.17,0.303 -0.437,0.934 -0.828,2.226 -2.829,10.447 -1.026,38.474 -0.425,45.012 l -0.078,0.928 c -0.466,1.551 -2.105,2.662 -4.615,3.134 C 9.709,27.267 7.346,27.153 5.456,26.585 3.102,25.876 1.728,24.686 1.215,22.733 L 1.134,21.702 c -2.642,1.448 -5.911,1.638 -9.66,0.511 -7.176,-2.16 -12.684,-8.858 -15.509,-18.857 -2.433,-8.611 -2.493,-18.779 -0.157,-26.54 2.383,-7.917 6.828,-12.201 12.485,-12.201 1.102,0 2.251,0.162 3.44,0.492 l 0.291,0.091 c 4.425,1.328 7.827,5.555 10.147,12.586 0.051,-0.183 0.103,-0.367 0.158,-0.547 0.937,-3.122 2.064,-5.246 3.392,-6.448 3.063,-3.131 7.583,-2.31 11.598,-1.103 l 1.856,0.556 c 6.879,2.401 10.275,19.75 12.931,38.276 0.01,0.384 -0.006,0.59 -0.049,0.816 0.024,0.148 0.058,0.298 0.053,0.443 0.573,3.368 1.475,6.217 2.35,8.975 1.206,3.804 2.261,7.136 2.124,10.825 0.64,0.205 1.222,0.499 1.69,0.733 1.543,0.773 2.981,1.83 4.249,2.765 0.231,0.171 0.458,0.339 0.68,0.501 0.153,-1.177 0.314,-2.496 0.488,-3.918 1.277,-10.422 3.206,-26.17 7.643,-35.027 1.17,-2.341 2.693,-4.285 4.302,-5.487 1.247,-0.901 2.661,-1.247 4.112,-1.247 3.229,0 6.637,1.707 8.775,2.777 l 1.256,0.64 c 4.387,1.463 5.519,9.353 5.595,10.062 0.154,0.51 2.55,8.557 4.033,18.138 0.332,-0.538 0.654,-1.089 1.004,-1.601 3.123,-4.561 6.756,-7.727 10.504,-9.161 1.555,-0.591 3.132,-0.886 4.71,-0.886 2.773,0 5.543,0.913 8.186,2.722 11.279,7.722 7.424,26.822 5.976,32.486"
             style="fill:#1c1c1b;fill-opacity:1;fill-rule:nonzero;stroke:none"
             id="path44" />
        </g>
        <g
           id="g46"
           transform="translate(472.8199,392.6192)">
          <path
             d="m 0,0 c -13.435,5.814 -19.797,23.493 -34.027,31.183 -10.954,5.919 -50.345,8.748 -64.405,0.069 -14.951,-6.207 -20.593,-25.401 -34.027,-31.223 -22.117,-9.584 -47.393,-3.603 -47.393,-3.603 0,0 25.671,-19.213 53.469,-19.213 47.861,0 60.937,21.941 60.937,21.941 0,0 10.915,-21.941 59.37,-21.941 27.798,0 53.469,19.189 53.469,19.189 0,0 -25.276,-5.974 -47.393,3.598"
             style="fill:#1e1e1e;fill-opacity:1;fill-rule:nonzero;stroke:none"
             id="path48" />
        </g>
        <g
           id="g50"
           transform="translate(348.3216,415.1652)">
          <path
             d="m 0,0 c 5.185,6.597 11.6,14.759 21.582,19.221 9.625,5.47 23.828,6.639 34.207,6.639 12.33,0 30.064,-1.8 39.461,-6.877 8.872,-4.795 14.816,-11.989 20.061,-18.337 3.422,-4.142 6.681,-8.072 9.884,-10.132 l -3.298,45.214 H -2.187 L -5.256,-6.352 C -3.554,-4.52 -1.802,-2.292 0,0"
             style="fill:#1e1e1e;fill-opacity:1;fill-rule:nonzero;stroke:none"
             id="path52" />
        </g>
        <g
           id="g54"
           transform="translate(350.9347,590.8256)">
          <path
             d="m 0,0 h 114.454 v 16.549 h 14.399 V 32.702 H 111.408 C 105.501,57.07 83.471,75.161 57.258,75.161 31.013,75.161 9.015,57.07 3.046,32.702 H -17.568 V 16.549 H 0 Z"
             style="fill:#1e1e1e;fill-opacity:1;fill-rule:nonzero;stroke:none"
             id="path56" />
        </g>
        <g
           id="g58"
           transform="translate(430.4302,571.774)">
          <path
             d="m 0,0 c -4.908,0 -6.909,-0.623 -7.585,-0.921 -0.049,-0.383 -0.072,-1.002 -0.073,-1.849 0,-1.963 2.139,-20.165 10.79,-38.015 8.396,-17.321 19.581,-27.566 33.318,-30.61 l -2.015,26.17 -0.092,0.954 h 15.014 v 16.153 H 34.958 V 0 Z"
             style="fill:#1e1e1e;fill-opacity:1;fill-rule:nonzero;stroke:none"
             id="path60" />
        </g>
        <g
           id="g62"
           transform="translate(349.5524,501.2452)">
          <path
             d="m 0,0 c 12.259,3.863 22.343,13.811 30.065,29.744 8.652,17.85 10.792,36.052 10.792,38.014 -0.002,0.846 -0.025,1.466 -0.074,1.85 -0.675,0.298 -2.675,0.921 -7.585,0.921 H 1.382 V 42.411 H -16.186 V 26.258 H 2.028 L 1.936,25.304 Z"
             style="fill:#1e1e1e;fill-opacity:1;fill-rule:nonzero;stroke:none"
             id="path64" />
        </g>
        <g
           id="g66"
           transform="translate(409.1097,542.6263)">
          <path
             d="m 0,0 c -0.979,0.822 -1.063,0.822 -2.519,0.822 -1.457,0 -1.541,0 -2.52,-0.822 -6.893,-21.806 -22.689,-54.75 -56.032,-61.162 l -1.412,-18.449 H 60.648 l -1.38,17.925 C 23.705,-56.852 7.113,-22.499 0,0"
             style="fill:#1e1e1e;fill-opacity:1;fill-rule:nonzero;stroke:none"
             id="path68" />
        </g>
        <g
           id="g70"
           transform="translate(475.8737,492.1807)">
          <path
             d="m 0,0 c -49.722,0 -60.322,69.487 -60.32,76.825 0.003,5.301 0.612,9.986 14.877,9.986 h 53.39 c 24.454,0 30.161,-26.695 30.161,-26.695 C 38.108,60.116 49.722,0 0,0 m -138.567,0 c -49.722,0 -38.108,60.116 -38.108,60.116 0,0 5.707,26.695 30.161,26.695 h 53.39 c 14.265,0 14.874,-4.685 14.877,-9.986 C -78.245,69.487 -88.845,0 -138.567,0 M 50.257,61.884 c -1,2.541 -2.653,3.841 -4.829,5.42 -2.576,1.87 -4.727,4.207 -6.925,6.5 -4.647,8.2 -13.31,17.624 -28.592,17.624 h -158.389 c -15.282,0 -23.945,-9.424 -28.592,-17.624 -2.198,-2.293 -4.349,-4.63 -6.925,-6.5 -2.176,-1.579 -3.829,-2.879 -4.829,-5.42 -1.922,-4.889 2.46,-8.949 5.742,-12.343 -0.697,-19.231 3.523,-54.158 43.396,-54.158 36.658,0 54.084,34.124 61.638,59.305 2.429,1.73 3.466,3.797 8.765,3.797 5.298,0 6.335,-2.067 8.764,-3.797 7.554,-25.181 24.98,-59.305 61.638,-59.305 39.873,0 44.093,34.927 43.397,54.158 3.282,3.394 7.663,7.454 5.741,12.343"
             style="fill:#1e1e1e;fill-opacity:1;fill-rule:nonzero;stroke:none"
             id="path72" />
        </g>
        <g
           id="g74"
           transform="translate(475.8737,492.1807)">
          <path
             d="m 0,0 c -49.722,0 -60.322,69.487 -60.32,76.825 0.003,5.301 0.612,9.986 14.877,9.986 h 53.39 c 24.454,0 30.161,-26.695 30.161,-26.695 C 38.108,60.116 49.722,0 0,0 Z m -138.567,0 c -49.722,0 -38.108,60.116 -38.108,60.116 0,0 5.707,26.695 30.161,26.695 h 53.39 c 14.265,0 14.874,-4.685 14.877,-9.986 C -78.245,69.487 -88.845,0 -138.567,0 Z M 50.257,61.884 c -1,2.541 -2.653,3.841 -4.829,5.42 -2.576,1.87 -4.727,4.207 -6.925,6.5 -4.647,8.2 -13.31,17.624 -28.592,17.624 h -158.389 c -15.282,0 -23.945,-9.424 -28.592,-17.624 -2.198,-2.293 -4.349,-4.63 -6.925,-6.5 -2.176,-1.579 -3.829,-2.879 -4.829,-5.42 -1.922,-4.889 2.46,-8.949 5.742,-12.343 -0.697,-19.231 3.523,-54.158 43.396,-54.158 36.658,0 54.084,34.124 61.638,59.305 2.429,1.73 3.466,3.797 8.765,3.797 5.298,0 6.335,-2.067 8.764,-3.797 7.554,-25.181 24.98,-59.305 61.638,-59.305 39.873,0 44.093,34.927 43.397,54.158 3.282,3.394 7.663,7.454 5.741,12.343 z"
             style="fill:none;stroke:#181818;stroke-width:2.546;stroke-linecap:butt;stroke-linejoin:miter;stroke-miterlimit:10;stroke-dasharray:none;stroke-opacity:1"
             id="path76" />
        </g>
        <g
           id="g78"
           transform="translate(441.3129,227.6247)">
          <path
             d="m 0,0 h -69.445 v 81.881 c 0,19.177 15.546,34.723 34.722,34.723 C -15.546,116.604 0,101.058 0,81.881 Z M 45.213,0.637 39.398,75.032 H 2.834 v 8.154 c 0,1.341 -0.077,2.663 -0.215,3.968 h 36.317 l -3.588,44.483 c -4.062,-0.672 -8.236,-1.09 -12.488,-1.09 -29.848,0 -47.343,8.063 -57.176,15.603 -10.191,-7.442 -28.162,-15.603 -57.972,-15.603 -3.162,0 -6.273,0.258 -9.337,0.645 l -3.552,-44.038 h 33.114 c -0.138,-1.305 -0.215,-2.627 -0.215,-3.968 v -8.154 h -33.392 l -5.815,-74.395 h -27.506 V -24.869 H 69.55 V 0.637 Z"
             style="fill:#1e1e1e;fill-opacity:1;fill-rule:nonzero;stroke:none"
             id="path80" />
        </g>
      </g>
    </g>
  </g>
</svg>
