<?xml version="1.0" encoding="utf-8"?>
<!-- Generator: Adobe Illustrator 16.0.0, SVG Export Plug-In . SVG Version: 6.00 Build 0)  -->
<!DOCTYPE svg PUBLIC "-//W3C//DTD SVG 1.1//EN" "http://www.w3.org/Graphics/SVG/1.1/DTD/svg11.dtd">
<svg version="1.1" id="Capa_1" xmlns="http://www.w3.org/2000/svg" xmlns:xlink="http://www.w3.org/1999/xlink" x="0px" y="0px"
	 width="200px" height="14.565px" viewBox="30.146 15.06 200 14.565" enable-background="new 30.146 15.06 200 14.565"
	 xml:space="preserve">
<path fill="none" d="z"/>
<g id="Capa_x25_201" color="green">
	<path d="M31.833,18.329l4.697,6.761l0.355,0.006l4.705-6.765l1.686-0.003l-5.558,8.028h-1.994l-5.579-8.028L31.833,18.329z"/>
	<path d="M57.444,22.44h-5.568c-0.898,0-1.503,0.092-1.819,0.276c-0.314,0.185-0.472,0.481-0.472,0.894v0.585
		c0,0.379,0.171,0.669,0.512,0.87c0.342,0.2,0.936,0.302,1.779,0.302h5.568c0.817,0,1.403-0.115,1.757-0.344
		c0.356-0.227,0.534-0.6,0.534-1.12C59.735,22.929,58.971,22.44,57.444,22.44L57.444,22.44z M51.326,21.449h6.482
		c0.548,0,0.986,0.062,1.314,0.186c0.328,0.126,0.532,0.285,0.613,0.48v-1.138c0-0.498-0.194-0.89-0.582-1.171
		c-0.441-0.325-1.103-0.487-1.985-0.487h-4.412c-0.855,0-1.501,0.103-1.935,0.309s-0.652,0.481-0.652,0.828v0.196h-1.57v-0.196
		c0-0.66,0.329-1.18,0.986-1.56s1.583-0.569,2.778-0.569h4.995c1.369,0,2.383,0.255,3.041,0.765
		c0.604,0.466,0.906,1.153,0.906,2.064v5.2h-1.53v-0.634c-0.214,0.197-0.47,0.351-0.764,0.465c-0.295,0.113-0.67,0.169-1.126,0.169
		h-6.634c-2.131,0-3.196-0.681-3.196-2.047v-0.975c0-0.575,0.254-1.025,0.763-1.351C49.379,21.627,50.216,21.449,51.326,21.449
		L51.326,21.449z"/>
	<path d="M69.845,26.356h-1.53V15.06h1.53V26.356z"/>
	<path d="M85.358,19.303h-4.785c-0.777,0-1.414,0.185-1.909,0.553c-0.496,0.368-0.744,0.85-0.744,1.446h10.25
		c0-0.584-0.251-1.064-0.753-1.438C86.914,19.489,86.228,19.303,85.358,19.303L85.358,19.303z M80.861,26.358
		c-2.98,0-4.47-1.003-4.47-3.009v-1.917c0-0.868,0.375-1.593,1.127-2.179c0.819-0.639,1.919-0.96,3.302-0.96h4.391
		c1.436,0,2.558,0.282,3.363,0.847c0.751,0.52,1.127,1.18,1.127,1.983v1.169h-11.78v0.91c0,0.771,0.275,1.335,0.826,1.691
		c0.482,0.315,1.174,0.473,2.073,0.473h4.974c0.792,0,1.387-0.134,1.782-0.399c0.396-0.265,0.594-0.604,0.594-1.016v-0.163h1.53
		v0.163c0,0.618-0.254,1.144-0.764,1.578c-0.659,0.552-1.645,0.828-2.961,0.828H80.861z"/>
	<path d="M104.419,18.327c1.596,0,2.781,0.337,3.56,1.009c0.669,0.574,1.004,1.359,1.004,2.356v4.667h-1.529v-4.846
		c0-0.693-0.278-1.233-0.836-1.618c-0.555-0.384-1.289-0.576-2.199-0.576h-3.999c-0.912,0-1.653,0.2-2.222,0.602
		c-0.568,0.4-0.854,0.931-0.854,1.593v4.846h-1.531v-8.032h1.531v1.301c0.254-0.434,0.626-0.759,1.115-0.976
		c0.489-0.216,1.143-0.325,1.96-0.325H104.419z"/>
	<path d="M126.732,23.513h1.53c0,0.847-0.302,1.507-0.905,1.985c-0.739,0.573-1.913,0.861-3.525,0.861h-4.691
		c-1.41,0-2.464-0.262-3.161-0.781c-0.698-0.521-1.048-1.25-1.048-2.195v-1.999c0-0.923,0.35-1.653,1.048-2.195
		c0.765-0.596,1.859-0.894,3.281-0.894h4.571c1.451,0,2.551,0.246,3.304,0.739c0.751,0.493,1.127,1.195,1.127,2.105h-1.53
		c0-0.585-0.216-1.03-0.645-1.332c-0.469-0.337-1.222-0.505-2.256-0.505h-4.571c-0.897,0-1.59,0.171-2.073,0.513
		c-0.483,0.341-0.725,0.864-0.725,1.568v1.999c0,0.617,0.268,1.112,0.805,1.479c0.498,0.336,1.121,0.504,1.873,0.504h4.691
		C125.767,25.366,126.732,24.748,126.732,23.513L126.732,23.513z"/>
	<path d="M136.156,16.229h-1.531v-1.17h1.531V16.229z M136.156,26.356h-1.531v-8.029h1.531V26.356z"/>
	<path d="M151.845,22.44h-5.567c-0.897,0-1.504,0.092-1.818,0.276s-0.473,0.481-0.473,0.894v0.585c0,0.379,0.171,0.669,0.514,0.87
		c0.34,0.2,0.934,0.302,1.777,0.302h5.567c0.815,0,1.404-0.115,1.759-0.344c0.354-0.227,0.531-0.6,0.531-1.12
		C154.135,22.929,153.371,22.44,151.845,22.44L151.845,22.44z M145.727,21.449h6.481c0.549,0,0.987,0.062,1.315,0.186
		c0.328,0.126,0.531,0.285,0.611,0.48v-1.138c0-0.498-0.194-0.89-0.58-1.171c-0.441-0.325-1.103-0.487-1.985-0.487h-4.413
		c-0.854,0-1.5,0.103-1.934,0.309c-0.436,0.206-0.652,0.481-0.652,0.828v0.196H143v-0.196c0-0.66,0.329-1.18,0.986-1.56
		s1.584-0.569,2.779-0.569h4.995c1.368,0,2.381,0.255,3.04,0.765c0.602,0.466,0.905,1.153,0.905,2.064v5.2h-1.53v-0.634
		c-0.215,0.197-0.47,0.351-0.763,0.465c-0.296,0.113-0.671,0.169-1.128,0.169h-6.633c-2.132,0-3.196-0.681-3.196-2.047v-0.975
		c0-0.575,0.254-1.025,0.763-1.351C143.781,21.627,144.617,21.449,145.727,21.449L145.727,21.449z"/>
	<path d="M163.38,23.21c0,1.437,1.053,2.157,3.161,2.157h3.848c1.006,0,1.771-0.163,2.295-0.488
		c0.578-0.356,0.864-0.912,0.864-1.669v-1.768c0-0.692-0.27-1.222-0.813-1.589c-0.544-0.366-1.325-0.551-2.346-0.551h-3.848
		c-1.061,0-1.853,0.167-2.375,0.503c-0.524,0.334-0.786,0.886-0.786,1.653V23.21z M166.415,18.295h4.122
		c1.607,0,2.794,0.319,3.557,0.957c0.658,0.541,0.985,1.275,0.985,2.206v1.753c0,0.931-0.334,1.665-1.005,2.206
		c-0.776,0.628-1.957,0.942-3.537,0.942h-4.122c-1.259,0-2.244-0.238-2.954-0.716v3.981h-1.531v-11.33h1.531v0.747
		c0.334-0.238,0.75-0.423,1.246-0.552C165.202,18.359,165.773,18.295,166.415,18.295L166.415,18.295z"/>
	<path d="M182.362,23.21c0,1.437,1.056,2.157,3.167,2.157h3.936c1.008,0,1.775-0.163,2.301-0.488
		c0.576-0.356,0.866-0.912,0.866-1.669v-1.768c0-0.692-0.271-1.222-0.817-1.589c-0.545-0.366-1.328-0.551-2.35-0.551h-3.936
		c-1.076,0-1.873,0.167-2.391,0.503c-0.519,0.334-0.776,0.886-0.776,1.653V23.21z M185.402,18.295h4.21
		c1.61,0,2.798,0.319,3.563,0.957c0.656,0.541,0.987,1.275,0.987,2.206v1.753c0,0.931-0.338,1.665-1.008,2.206
		c-0.78,0.628-1.961,0.942-3.543,0.942h-4.21c-3.047,0-4.57-1.051-4.57-3.148v-1.753c0-0.973,0.348-1.729,1.046-2.271
		C182.645,18.593,183.819,18.295,185.402,18.295L185.402,18.295z"/>
	<path d="M204.777,18.295h4.039c1.609,0,2.795,0.32,3.56,0.959c0.656,0.542,0.983,1.277,0.983,2.211h-1.53
		c0-0.705-0.268-1.241-0.802-1.609c-0.538-0.368-1.321-0.553-2.353-0.553h-3.759c-1.069,0-1.865,0.168-2.381,0.505
		c-0.516,0.334-0.773,0.888-0.773,1.657v4.895h-1.531v-8.064h1.531v1.024c0.228-0.337,0.579-0.592,1.055-0.765
		S203.945,18.295,204.777,18.295L204.777,18.295z"/>
	<path d="M223.416,25.367h2.871c0.789,0,1.378-0.141,1.768-0.424c0.293-0.217,0.44-0.459,0.44-0.731h1.651
		c0,0.542-0.274,1.015-0.825,1.413c-0.67,0.488-1.638,0.731-2.899,0.731h-3.021c-1.194,0-2.107-0.235-2.738-0.713
		c-0.671-0.511-1.007-1.269-1.007-2.276v-3.869h-1.31v-1.171h1.31v-1.545h1.53v1.545h7.853v1.171h-7.853v4.015
		c0,0.63,0.204,1.095,0.612,1.398S222.745,25.367,223.416,25.367L223.416,25.367z"/>
</g>
<path fill="none" d="z"/>
</svg>
